<svg width="100%" height="100%" viewBox="0 0 800 600" xmlns="http://www.w3.org/2000/svg">
  <defs>
    <pattern id="grid" width="20" height="20" patternUnits="userSpaceOnUse">
      <path d="M 20 0 L 0 0 0 20" fill="none" stroke="rgba(255,255,255,0.1)" stroke-width="1"/>
    </pattern>
    <radialGradient id="grad" cx="50%" cy="50%" r="50%">
      <stop offset="0%" stop-color="rgba(0,0,0,0)" />
      <stop offset="100%" stop-color="rgba(0,0,0,0.5)" />
    </radialGradient>
  </defs>
  <rect width="100%" height="100%" fill="#000" />
  <rect width="100%" height="100%" fill="url(#grid)" />
  <g transform="translate(400, 300)">
    <circle cx="0" cy="0" r="100" fill="none" stroke="rgba(255,255,255,0.2)" stroke-width="1" />
    <circle cx="0" cy="0" r="120" fill="none" stroke="rgba(255,255,255,0.1)" stroke-width="1" />
    <circle cx="0" cy="0" r="140" fill="none" stroke="rgba(255,255,255,0.1)" stroke-width="1" />
    <g>
      <circle cx="0" cy="-100" r="6" fill="rgba(255,255,255,0.5)" />
      <circle cx="0" cy="-100" r="10" fill="none" stroke="rgba(255,255,255,0.3)" stroke-width="1"/>
    </g>
    <g transform="rotate(30)">
      <circle cx="0" cy="-100" r="6" fill="rgba(255,255,255,0.5)" />
      <circle cx="0" cy="-100" r="10" fill="none" stroke="rgba(255,255,255,0.3)" stroke-width="1"/>
    </g>
    <g transform="rotate(60)">
      <circle cx="0" cy="-100" r="6" fill="rgba(255,255,255,0.5)" />
      <circle cx="0" cy="-100" r="10" fill="none" stroke="rgba(255,255,255,0.3)" stroke-width="1"/>
    </g>
    <g transform="rotate(90)">
      <circle cx="0" cy="-100" r="6" fill="rgba(255,255,255,0.5)" />
      <circle cx="0" cy="-100" r="10" fill="none" stroke="rgba(255,255,255,0.3)" stroke-width="1"/>
    </g>
    <g transform="rotate(120)">
      <circle cx="0" cy="-100" r="6" fill="rgba(255,255,255,0.5)" />
      <circle cx="0" cy="-100" r="10" fill="none" stroke="rgba(255,255,255,0.3)" stroke-width="1"/>
    </g>
    <g transform="rotate(150)">
      <circle cx="0" cy="-100" r="6" fill="rgba(255,255,255,0.5)" />
      <circle cx="0" cy="-100" r="10" fill="none" stroke="rgba(255,255,255,0.3)" stroke-width="1"/>
    </g>
    <g transform="rotate(180)">
      <circle cx="0" cy="-100" r="6" fill="rgba(255,255,255,0.5)" />
      <circle cx="0" cy="-100" r="10" fill="none" stroke="rgba(255,255,255,0.3)" stroke-width="1"/>
    </g>
    <g transform="rotate(210)">
      <circle cx="0" cy="-100" r="6" fill="rgba(255,255,255,0.5)" />
      <circle cx="0" cy="-100" r="10" fill="none" stroke="rgba(255,255,255,0.3)" stroke-width="1"/>
    </g>
    <g transform="rotate(240)">
      <circle cx="0" cy="-100" r="6" fill="rgba(255,255,255,0.5)" />
      <circle cx="0" cy="-100" r="10" fill="none" stroke="rgba(255,255,255,0.3)" stroke-width="1"/>
    </g>
    <g transform="rotate(270)">
      <circle cx="0" cy="-100" r="6" fill="rgba(255,255,255,0.5)" />
      <circle cx="0" cy="-100" r="10" fill="none" stroke="rgba(255,255,255,0.3)" stroke-width="1"/>
    </g>
    <g transform="rotate(300)">
      <circle cx="0" cy="-100" r="6" fill="rgba(255,255,255,0.5)" />
      <circle cx="0" cy="-100" r="10" fill="none" stroke="rgba(255,255,255,0.3)" stroke-width="1"/>
    </g>
    <g transform="rotate(330)">
      <circle cx="0" cy="-100" r="6" fill="rgba(255,255,255,0.5)" />
      <circle cx="0" cy="-100" r="10" fill="none" stroke="rgba(255,255,255,0.3)" stroke-width="1"/>
    </g>
    <circle cx="0" cy="0" r="60" fill="none" stroke="rgba(255,255,255,0.2)" stroke-width="1" />
    <circle cx="0" cy="-60" r="5" fill="rgba(255,255,255,0.5)" />
    <circle cx="60" cy="0" r="5" fill="rgba(255,255,255,0.5)" />
    <circle cx="0" cy="60" r="5" fill="rgba(255,255,255,0.5)" />
    <circle cx="-60" cy="0" r="5" fill="rgba(255,255,255,0.5)" />
    <path d="M 0 -60 L 60 0 L 0 60 L -60 0 Z" fill="none" stroke="rgba(255,255,255,0.1)" />
  </g>
  <rect x="0" y="0" width="800" height="600" fill="url(#grad)" />
  <path d="M 50,50 L 70,50 L 50,70 Z" fill="none" stroke="rgba(255,255,255,0.3)" stroke-width="2" transform="rotate(90 50 50)"/>
  <path d="M 750,50 L 730,50 L 750,70 Z" fill="none" stroke="rgba(255,255,255,0.3)" stroke-width="2" transform="rotate(180 750 50)"/>
  <path d="M 50,550 L 70,550 L 50,530 Z" fill="none" stroke="rgba(255,255,255,0.3)" stroke-width="2" />
  <path d="M 750,550 L 730,550 L 750,530 Z" fill="none" stroke="rgba(255,255,255,0.3)" stroke-width="2" transform="rotate(-90 750 550)"/>
</svg>
